<?xml version="1.0" encoding="UTF-8"?>
<!DOCTYPE svg PUBLIC "-//W3C//DTD SVG 1.1//EN" "http://www.w3.org/Graphics/SVG/1.1/DTD/svg11.dtd">
<!-- Creator: CorelDRAW 2019 (64-Bit) -->
<svg xmlns="http://www.w3.org/2000/svg" xml:space="preserve" width="1271px" height="280px" version="1.1" style="shape-rendering:geometricPrecision; text-rendering:geometricPrecision; image-rendering:optimizeQuality; fill-rule:evenodd; clip-rule:evenodd"
viewBox="0 0 1271 279.92"
 xmlns:xlink="http://www.w3.org/1999/xlink"
 xmlns:xodm="http://www.corel.com/coreldraw/odm/2003">
 <defs>
  <style type="text/css">
   <![CDATA[
    .fil4 {fill:white}
    .fil0 {fill:#1A1A1A;fill-rule:nonzero}
    .fil3 {fill:white;fill-rule:nonzero}
    .fil2 {fill:url(#id0)}
    .fil1 {fill:url(#id1);fill-rule:nonzero}
   ]]>
  </style>
  <linearGradient id="id0" gradientUnits="userSpaceOnUse" x1="124.01" y1="154.57" x2="260.33" y2="19.23">
   <stop offset="0" style="stop-opacity:1; stop-color:#FF4700"/>
   <stop offset="1" style="stop-opacity:1; stop-color:#FF8400"/>
  </linearGradient>
  <linearGradient id="id1" gradientUnits="userSpaceOnUse" x1="754.16" y1="100.24" x2="1269.34" y2="100.24">
   <stop offset="0" style="stop-opacity:1; stop-color:#FF4400"/>
   <stop offset="1" style="stop-opacity:1; stop-color:#FF5E00"/>
  </linearGradient>
 </defs>
 <g id="Layer_x0020_1">
  <metadata id="CorelCorpID_0Corel-Layer"/>
  <g id="_2301529348672">
   <path class="fil0" d="M456.92 22.76l0 161.36 -39.31 0 0 -66.43 -61.14 0 0 66.43 -39.31 0 0 -161.36 39.31 0 0 63.21 61.14 0 0 -63.21 39.31 0zm292.51 73.24c1.26,3.45 2.35,7.13 3.28,11.03l-83.59 30.43c3.3,7.28 7.8,12.12 13.49,14.54 5.69,2.41 11.63,2.49 17.82,0.24 9.22,-3.36 14.21,-9.58 14.98,-18.67l39.31 -14.3c0.87,8.65 -0.17,17.1 -3.12,25.35 -2.95,8.25 -7.73,15.61 -14.34,22.1 -6.61,6.48 -14.81,11.5 -24.61,15.07 -11.8,4.3 -23.23,5.6 -34.28,3.92 -11.05,-1.69 -20.87,-6.27 -29.46,-13.74 -8.59,-7.47 -15.17,-17.47 -19.73,-30 -4.56,-12.53 -5.99,-24.41 -4.28,-35.63 1.7,-11.22 6.25,-21.02 13.63,-29.42 7.38,-8.39 17.05,-14.77 29,-19.12 11.66,-4.24 22.92,-5.57 33.78,-3.97 10.85,1.59 20.48,5.99 28.9,13.2 8.41,7.22 14.82,16.87 19.22,28.97zm-41.34 4.04c-2.3,-6.34 -6.3,-10.59 -11.98,-12.77 -5.68,-2.17 -11.76,-2.08 -18.24,0.28 -6.2,2.26 -10.76,5.96 -13.7,11.1 -2.94,5.15 -3.7,11.22 -2.3,18.21l46.22 -16.82zm-128.42 -22.81c4.59,-7.05 10.34,-12.6 17.24,-16.66 6.89,-4.06 14.55,-6.09 22.98,-6.09l0 41.6 -10.8 0c-9.81,0 -17.16,2.11 -22.07,6.32 -4.9,4.22 -7.35,11.61 -7.35,22.18l0 59.54 -39.31 0 0 -128.26 39.31 0 0 21.37zm-81.03 -34.71c-6.9,0 -12.53,-2.03 -16.89,-6.09 -4.37,-4.06 -6.56,-9.08 -6.56,-15.05 0,-6.13 2.19,-11.23 6.56,-15.29 4.36,-4.06 9.99,-6.09 16.89,-6.09 6.74,0 12.3,2.03 16.66,6.09 4.37,4.06 6.56,9.16 6.56,15.29 0,5.97 -2.19,10.99 -6.56,15.05 -4.36,4.06 -9.92,6.09 -16.66,6.09zm19.54 13.34l0 128.26 -39.31 0 0 -128.26 39.31 0z"/>
   <path class="fil1" d="M1220.61 54.48c14.71,0 26.51,4.86 35.4,14.59 8.89,9.73 13.33,23.1 13.33,40.11l0 74.94 -39.08 0 0 -69.65c0,-8.58 -2.22,-15.25 -6.66,-20 -4.45,-4.75 -10.42,-7.12 -17.93,-7.12 -7.51,0 -13.49,2.37 -17.93,7.12 -4.44,4.75 -6.67,11.42 -6.67,20l0 69.65 -39.3 0 0 -170.1 39.3 0 0 59.08c3.99,-5.67 9.43,-10.2 16.32,-13.57 6.9,-3.37 14.64,-5.05 23.22,-5.05zm-341.64 -31.72l0 31.49 -42.75 0 0 129.87 -39.31 0 0 -129.87 -42.75 0 0 -31.49 124.81 0zm108.41 73.27c1.26,3.45 2.36,7.13 3.29,11.03l-83.6 30.43c3.31,7.27 7.8,12.12 13.49,14.54 5.69,2.41 11.63,2.49 17.82,0.23 9.22,-3.35 14.21,-9.57 14.98,-18.66l39.31 -14.3c0.87,8.65 -0.17,17.1 -3.12,25.35 -2.95,8.25 -7.73,15.61 -14.34,22.1 -6.61,6.48 -14.81,11.5 -24.6,15.07 -11.81,4.29 -23.24,5.6 -34.29,3.92 -11.05,-1.69 -20.87,-6.27 -29.46,-13.74 -8.59,-7.48 -15.17,-17.48 -19.73,-30 -4.56,-12.53 -5.99,-24.41 -4.28,-35.63 1.7,-11.22 6.25,-21.03 13.63,-29.42 7.38,-8.39 17.05,-14.77 29,-19.12 11.66,-4.24 22.92,-5.57 33.78,-3.97 10.85,1.59 20.48,5.99 28.9,13.21 8.41,7.21 14.82,16.86 19.22,28.96zm-41.33 4.03c-2.31,-6.33 -6.3,-10.59 -11.99,-12.76 -5.68,-2.17 -11.76,-2.08 -18.24,0.28 -6.19,2.26 -10.76,5.96 -13.7,11.1 -2.93,5.15 -3.7,11.22 -2.3,18.21l46.23 -16.83zm58.45 19.93c0,-13.34 2.72,-24.98 8.16,-34.94 5.44,-9.96 13.03,-17.62 22.76,-22.99 9.73,-5.36 20.88,-8.04 33.44,-8.04 16.09,0 29.54,4.21 40.34,12.64 10.81,8.43 17.89,20.3 21.27,35.63l-41.84 0c-3.52,-9.81 -10.34,-14.71 -20.46,-14.71 -7.2,0 -12.95,2.79 -17.24,8.39 -4.29,5.59 -6.43,13.6 -6.43,24.02 0,10.42 2.14,18.42 6.43,24.02 4.29,5.59 10.04,8.39 17.24,8.39 10.12,0 16.94,-4.91 20.46,-14.71l41.84 0c-3.38,15.01 -10.5,26.81 -21.38,35.4 -10.88,8.58 -24.29,12.87 -40.23,12.87 -12.56,0 -23.71,-2.69 -33.44,-8.05 -9.73,-5.36 -17.32,-13.02 -22.76,-22.98 -5.44,-9.96 -8.16,-21.61 -8.16,-34.94z"/>
   <polygon class="fil0" points="322.83,213.25 366,213.25 366,225.43 350.42,225.43 350.42,277.31 337.8,277.31 337.8,225.43 322.83,225.43 "/>
   <path id="1" class="fil0" d="M492.04 277.31l28.9 -66.59 0.69 0 28.9 66.59 -14.62 0 -18.45 -46.83 9.13 -6.27 -22.1 53.1 -12.45 0zm19.76 -23.16l19.23 0 4.44 10.62 -27.59 0 3.92 -10.62z"/>
   <polygon id="2" class="fil0" points="680.93,213.25 693.55,213.25 693.55,265.12 723.66,265.12 723.66,277.31 680.93,277.31 "/>
   <polygon id="3" class="fil0" points="857.8,213.25 901.49,213.25 901.49,225.43 870.42,225.43 870.42,239.1 897.92,239.1 897.92,251.28 870.42,251.28 870.42,265.12 902.71,265.12 902.71,277.31 857.8,277.31 "/>
   <polygon id="4" class="fil0" points="1094.21,279.92 1045.64,236.05 1049.38,238.14 1049.64,277.31 1036.85,277.31 1036.85,210.72 1037.37,210.72 1084.89,254.42 1082.11,253.2 1081.85,213.25 1094.55,213.25 1094.55,279.92 "/>
   <polygon id="5" class="fil0" points="1227.82,213.25 1270.99,213.25 1270.99,225.43 1255.41,225.43 1255.41,277.31 1242.79,277.31 1242.79,225.43 1227.82,225.43 "/>
   <path class="fil2" d="M51.32 8.59l166.85 0c28.23,0 51.34,23.1 51.34,51.34l0 166.84c0,28.24 -23.11,51.34 -51.34,51.34l-166.85 0c-28.23,0 -51.33,-23.1 -51.33,-51.34l0 -166.84c0,-28.24 23.1,-51.34 51.33,-51.34z"/>
   <path class="fil3" d="M74.08 225.52c-7.51,-0.21 -13.19,-2.19 -17.04,-5.94 -3.86,-3.76 -5.79,-9.8 -5.79,-18.13l0 -30.08c0,-5.96 -0.77,-10.49 -2.31,-13.57 -1.54,-3.09 -3.55,-5.14 -6.02,-6.17 -2.47,-1.03 -5.5,-1.54 -9.1,-1.54l0 -12.81c3.6,0 6.63,-0.43 9.1,-1.31 2.47,-0.87 4.48,-2.8 6.02,-5.78 1.54,-2.99 2.31,-7.36 2.31,-13.12l0 -34.55c0,-15.63 7.61,-23.45 22.83,-23.45 3.39,0 6.33,0.16 8.79,0.47l0.31 12.95c-2.26,-0.82 -4.52,-1.23 -6.79,-1.23 -2.67,0 -4.91,0.57 -6.71,1.7 -1.8,1.13 -2.69,3.03 -2.69,5.71l0 42.72c0,5.56 -1.52,10.65 -4.56,15.28 -3.03,4.62 -6.71,7.19 -11.02,7.71 4.52,0.51 8.25,2.67 11.18,6.48 2.93,3.8 4.4,8.58 4.4,14.34l0 40.11c0,2.67 0.95,4.63 2.85,5.86 1.9,1.24 4.24,1.85 7.02,1.85 2.47,0 4.57,-0.36 6.32,-1.08l-0.31 13.11c-4.93,0.31 -7.86,0.47 -8.79,0.47z"/>
   <path class="fil3" d="M195.41 225.52c7.51,-0.21 13.19,-2.19 17.05,-5.94 3.85,-3.76 5.78,-9.8 5.78,-18.13l0 -30.08c0,-5.96 0.77,-10.49 2.31,-13.57 1.55,-3.09 3.55,-5.14 6.02,-6.17 2.47,-1.03 5.5,-1.54 9.1,-1.54l0 -12.81c-3.6,0 -6.63,-0.43 -9.1,-1.31 -2.47,-0.87 -4.47,-2.8 -6.02,-5.78 -1.54,-2.99 -2.31,-7.36 -2.31,-13.12l0 -34.55c0,-15.63 -7.61,-23.45 -22.83,-23.45 -3.39,0 -6.32,0.16 -8.79,0.47l-0.31 12.95c2.26,-0.82 4.52,-1.23 6.79,-1.23 2.67,0 4.91,0.57 6.71,1.7 1.8,1.13 2.7,3.03 2.7,5.71l0 42.72c0,5.56 1.51,10.65 4.55,15.28 3.03,4.62 6.71,7.19 11.03,7.71 -4.53,0.51 -8.26,2.67 -11.19,6.48 -2.93,3.8 -4.39,8.58 -4.39,14.34l0 40.11c0,2.67 -0.95,4.63 -2.86,5.86 -1.9,1.24 -4.24,1.85 -7.02,1.85 -2.46,0 -4.57,-0.36 -6.32,-1.08l0.31 13.11c4.93,0.31 7.86,0.47 8.79,0.47z"/>
   <path class="fil4" d="M134.75 130.47l0 0c7.81,0 14.21,6.4 14.21,14.21l0 69.93c0,7.82 -6.4,14.21 -14.21,14.21l0 0c-7.82,0 -14.21,-6.39 -14.21,-14.21l0 -69.93c0,-7.81 6.39,-14.21 14.21,-14.21z"/>
   <path class="fil4" d="M86.83 144.68l0 0c0,-7.81 6.39,-14.21 14.21,-14.21l67.42 0c7.81,0 14.2,6.4 14.2,14.21l0 0c0,7.82 -6.39,14.21 -14.2,14.21l-67.42 0c-7.82,0 -14.21,-6.39 -14.21,-14.21z"/>
   <circle class="fil4" cx="134.75" cy="93.31" r="25.07"/>
  </g>
 </g>
</svg>
