<svg width="200" height="70" viewBox="0 0 200 70" fill="none" xmlns="http://www.w3.org/2000/svg">
<rect width="200" height="70" fill="#301934"/>
<rect width="200" height="70" fill="white"/>
<path d="M25.528 46.384C23.8 46.384 22.264 45.936 20.92 45.04C19.576 44.144 18.52 42.8747 17.752 41.232C16.984 39.568 16.6 37.616 16.6 35.376C16.6 32.9867 17.0053 30.8853 17.816 29.072C18.6267 27.2373 19.7893 25.808 21.304 24.784C22.84 23.7387 24.6853 23.216 26.84 23.216C28.2267 23.216 29.464 23.3867 30.552 23.728C31.64 24.0693 32.664 24.5067 33.624 25.04L32.504 27.568C31.608 27.0773 30.6907 26.672 29.752 26.352C28.8347 26.032 27.8107 25.872 26.68 25.872C25.336 25.872 24.1413 26.2347 23.096 26.96C22.0507 27.664 21.2187 28.7093 20.6 30.096C20.0027 31.4827 19.704 33.1787 19.704 35.184C19.704 36.976 19.9813 38.512 20.536 39.792C21.0907 41.0507 21.8587 42.0213 22.84 42.704C23.8213 43.3867 24.952 43.728 26.232 43.728C27.4267 43.728 28.4827 43.4827 29.4 42.992C30.3387 42.48 31.0747 41.9573 31.608 41.424V36.528H26.968V34.128H34.488V46H31.8V43.76C31.0533 44.4213 30.1467 45.0293 29.08 45.584C28.0133 46.1173 26.8293 46.384 25.528 46.384ZM39.4425 46V23.6H52.8825V26.224H42.4825V33.04H51.4425V35.6H42.4825V43.376H52.8825V46H39.4425ZM61.5125 46V26.288H54.6325V23.6H71.4325V26.288H64.5525V46H61.5125Z" fill="#00E572"/>
<path d="M75.88 46V23.6H78.92V33.168H89.96V23.6H93V46H89.96V35.792H78.92V46H75.88ZM98.755 46V23.6H101.795V46H98.755ZM120.624 46.384L117.84 40.304C117.136 38.7893 116.25 37.712 115.184 37.072C114.117 36.432 112.752 36.112 111.088 36.112H110.608V46H107.568V23.664C108.698 23.5573 109.776 23.4827 110.8 23.44C111.845 23.376 112.954 23.344 114.128 23.344C116.858 23.344 118.906 23.8987 120.272 25.008C121.658 26.1173 122.352 27.5467 122.352 29.296C122.352 30.8533 121.882 32.112 120.944 33.072C120.026 34.0107 118.693 34.7147 116.944 35.184C117.52 35.44 118.032 35.7493 118.48 36.112C118.928 36.4533 119.354 36.9227 119.76 37.52C120.186 38.096 120.613 38.8533 121.04 39.792L123.472 45.04L120.624 46.384ZM110.608 33.552H114.128C115.664 33.552 116.912 33.2107 117.872 32.528C118.832 31.8453 119.312 30.864 119.312 29.584C119.312 28.5173 118.864 27.6427 117.968 26.96C117.072 26.256 115.792 25.904 114.128 25.904C113.402 25.904 112.752 25.9147 112.176 25.936C111.6 25.9573 111.077 25.9893 110.608 26.032V33.552ZM127.318 46V23.6H140.758V26.224H130.358V33.04H139.318V35.6H130.358V43.376H140.758V46H127.318Z" fill="black"/>
<path d="M188.871 36.0114L185.799 24.2938C185.401 22.7708 184.335 21.4579 182.887 20.7006C181.432 19.9432 179.766 19.7898 178.131 20.2897L177.098 20.62C176.531 20.7972 176.227 21.3857 176.421 21.9252L176.76 22.9003C176.946 23.4401 177.564 23.7305 178.131 23.5533L179.019 23.2713C179.756 23.0376 180.576 23.0376 181.27 23.3841C181.964 23.7305 182.455 24.3186 182.65 25.0437L185.249 34.9631C183.751 34.5199 181.88 34.1574 179.756 34.1574C177.394 34.1574 174.806 34.6086 171.976 35.8815H167.022C164.253 34.6063 161.605 34.1551 159.242 34.1551C157.117 34.1551 155.247 34.5177 153.75 34.9608L156.348 25.0415C156.543 24.3164 157.034 23.7279 157.736 23.3818C158.423 23.0383 159.242 23.0383 159.98 23.2716L160.869 23.5536C161.436 23.7308 162.053 23.4408 162.24 22.9007L162.578 21.9255C162.77 21.3863 162.465 20.7985 161.89 20.6213L160.857 20.291C159.291 19.7914 157.556 19.9445 156.109 20.7018C154.662 21.4592 153.595 22.7727 153.197 24.2951L150.127 36.0114C150.042 36.3337 150 36.6688 150 37.0104V41.5382C150 45.5311 153.496 48.8762 157.807 48.8762H160.321C164.4 48.8762 167.796 45.9114 168.1 42.0829L168.295 39.5931H170.716L170.91 42.0829C171.213 45.8534 174.605 48.8762 178.681 48.8762H181.195C185.503 48.8762 188.995 45.5891 188.995 41.535V37.0104C189 36.6688 188.959 36.3401 188.871 36.0114ZM163.772 41.7671C163.636 43.4428 162.121 44.748 160.319 44.748H157.8C155.891 44.6932 154.333 43.3075 154.333 41.535V39.118C155.56 38.6991 157.271 38.2801 159.25 38.2801C160.867 38.2801 162.45 38.5621 163.982 39.118L163.772 41.7671ZM184.667 41.535C184.667 43.3075 183.109 44.75 181.197 44.75H178.683C176.88 44.75 175.365 43.4448 175.229 41.769L175.018 39.118C176.549 38.5621 178.141 38.2801 179.757 38.2801C181.721 38.2801 183.439 38.6991 184.666 39.118V41.535H184.667Z" fill="black"/>
</svg>
